<?xml version="1.0" encoding="utf-8"?>
<!-- Generator: Adobe Illustrator 20.1.0, SVG Export Plug-In . SVG Version: 6.00 Build 0)  -->
<svg version="1.1" id="Layer_1" xmlns="http://www.w3.org/2000/svg" xmlns:xlink="http://www.w3.org/1999/xlink" x="0px" y="0px"
	 viewBox="0 0 1303.6 1866.5" style="enable-background:new 0 0 1303.6 1866.5;" xml:space="preserve">
<style type="text/css">
	.st0{fill:#E45E29;}
</style>
<g>
	<path class="st0" d="M1297.7,63.2c-5.5,0-10.5-1.9-14.3-5c-3.8,3.1-8.8,5-14.3,5c-5.5,0-10.5-1.9-14.3-5c-3.8,3.1-8.8,5-14.3,5
		c-5.5,0-10.5-1.9-14.3-5c-3.8,3.1-8.8,5-14.3,5c-5.5,0-10.5-1.9-14.3-5c-3.8,3.1-8.8,5-14.3,5c-5.5,0-10.5-1.9-14.3-5
		c-3.8,3.1-8.8,5-14.3,5c-5.5,0-10.5-1.9-14.3-5c-3.8,3.1-8.8,5-14.3,5c-5.5,0-10.5-1.9-14.3-5c-3.8,3.1-8.8,5-14.3,5
		c-5.5,0-10.5-1.9-14.3-5c-3.8,3.1-8.8,5-14.3,5c-5.5,0-10.5-1.9-14.3-5c-3.8,3.1-8.8,5-14.3,5s-10.5-1.9-14.3-5
		c-3.8,3.1-8.8,5-14.3,5c-5.5,0-10.5-1.9-14.3-5c-3.8,3.1-8.8,5-14.3,5c-5.5,0-10.5-1.9-14.3-5c-3.8,3.1-8.8,5-14.3,5
		s-10.5-1.9-14.3-5c-3.8,3.1-8.8,5-14.3,5c-5.5,0-10.5-1.9-14.3-5c-3.8,3.1-8.8,5-14.3,5c-5.5,0-10.5-1.9-14.3-5
		c-3.8,3.1-8.8,5-14.3,5c-5.5,0-10.5-1.9-14.3-5c-3.8,3.1-8.8,5-14.3,5c-5.5,0-10.5-1.9-14.3-5c-3.8,3.1-8.8,5-14.3,5
		c-5.5,0-10.5-1.9-14.3-5c-3.8,3.1-8.8,5-14.3,5c-5.5,0-10.5-1.9-14.3-5c-3.8,3.1-8.8,5-14.3,5c-5.5,0-10.5-1.9-14.3-5
		c-3.8,3.1-8.8,5-14.3,5c-5.5,0-10.5-1.9-14.3-5c-3.8,3.1-8.8,5-14.3,5c-5.5,0-10.5-1.9-14.3-5c-3.8,3.1-8.8,5-14.3,5
		c-5.5,0-10.5-1.9-14.3-5c-3.8,3.1-8.8,5-14.3,5c-5.5,0-10.5-1.9-14.3-5c-3.8,3.1-8.8,5-14.3,5c-5.5,0-10.5-1.9-14.3-5
		c-3.8,3.1-8.8,5-14.3,5c-5.5,0-10.5-1.9-14.3-5c-3.8,3.1-8.8,5-14.3,5c-5.5,0-10.5-1.9-14.3-5c-3.8,3.1-8.8,5-14.3,5
		c-5.5,0-10.5-1.9-14.3-5c-3.8,3.1-8.8,5-14.3,5s-10.5-1.9-14.3-5c-3.8,3.1-8.8,5-14.3,5c-5.5,0-10.5-1.9-14.3-5
		c-3.8,3.1-8.8,5-14.3,5c-5.5,0-10.5-1.9-14.3-5c-3.8,3.1-8.8,5-14.3,5c-5.5,0-10.5-1.9-14.3-5c-3.8,3.1-8.8,5-14.3,5
		c-5.5,0-10.5-1.9-14.3-5c-3.8,3.1-8.8,5-14.3,5c-5.5,0-10.5-1.9-14.3-5c-3.8,3.1-8.8,5-14.3,5c-5.5,0-10.5-1.9-14.3-5
		c-3.8,3.1-8.8,5-14.3,5c-5.5,0-10.5-1.9-14.3-5c-3.8,3.1-8.8,5-14.3,5c-5.5,0-10.5-1.9-14.3-5c-3.8,3.1-8.8,5-14.3,5
		c-5.5,0-10.5-1.9-14.3-5c-3.8,3.1-8.8,5-14.3,5c-5.5,0-10.5-1.9-14.3-5c-3.8,3.1-8.8,5-14.3,5c-5.5,0-10.5-1.9-14.3-5
		c-3.8,3.1-8.8,5-14.3,5c-5.5,0-10.5-1.9-14.3-5c-3.8,3.1-8.8,5-14.3,5c-5.5,0-10.5-1.9-14.3-5c-3.8,3.1-8.8,5-14.3,5
		c-5.5,0-10.5-1.9-14.3-5c-3.8,3.1-8.8,5-14.3,5c-5.5,0-10.5-1.9-14.3-5c-3.8,3.1-8.8,5-14.3,5c-5.5,0-10.5-1.9-14.3-5
		c-3.8,3.1-8.8,5-14.3,5c-4.6,0-8.9-1.4-12.4-3.6v1807h1302.5v-792.6V62.6C1301,63,1299.3,63.2,1297.7,63.2z"/>
	<path class="st0" d="M1302.5,1073.9c0.1,0.3,0.2,0.6,0.2,0.9v-0.9H1302.5z"/>
	<path class="st0" d="M1302.9,1076.2c0-0.5,0-0.9-0.1-1.4v2.7C1302.8,1077.1,1302.9,1076.7,1302.9,1076.2z"/>
	<path class="st0" d="M-8.7,1073.9H-9v2.3C-9,1075.4-8.9,1074.7-8.7,1073.9z"/>
</g>
</svg>
