<?xml version="1.0" encoding="utf-8"?>
<!-- Generator: Adobe Illustrator 20.1.0, SVG Export Plug-In . SVG Version: 6.00 Build 0)  -->
<svg version="1.1" id="Layer_1" xmlns="http://www.w3.org/2000/svg" xmlns:xlink="http://www.w3.org/1999/xlink" x="0px" y="0px"
	 viewBox="0 0 1593.9 70.3" style="enable-background:new 0 0 1593.9 70.3;" xml:space="preserve">
<style type="text/css">
	.st0{fill:#FFFFFF;}
</style>
<g>
	<g>
		<path class="st0" d="M1556,32.1l0.1,0.2c0-0.1,0.1-0.3,0.1-0.4L1556,32.1z"/>
		<path class="st0" d="M16.4,29.3c-1.3,0-2.3,0.5-2.9,1.4c-0.6,0.9-1,2.4-1,4.4c0,1.9,0.3,3.4,1,4.3c0.7,1,1.6,1.5,2.9,1.5
			c1.3,0,2.3-0.5,2.9-1.4s1-2.4,1-4.4c0-1.9-0.3-3.4-1-4.4C18.6,29.8,17.7,29.3,16.4,29.3z M17.9,38.5c-0.3,0.7-0.8,1-1.5,1
			s-1.2-0.3-1.5-1s-0.5-1.8-0.5-3.3s0.2-2.7,0.5-3.3c0.3-0.7,0.8-1,1.5-1s1.2,0.3,1.5,1c0.3,0.7,0.5,1.8,0.5,3.3
			C18.4,36.7,18.3,37.8,17.9,38.5z"/>
		<path class="st0" d="M175.8,29.5h-1.5l-3.3,2.6l0.9,1.2c1-0.8,1.6-1.3,1.7-1.4c0.2-0.1,0.3-0.3,0.4-0.4c0,0.5-0.1,1.2-0.1,2.1v1.2
			h1.8V29.5z"/>
		<rect x="174" y="35.6" class="st0" width="1.8" height="5.3"/>
		<path class="st0" d="M183.3,29.3c-1.3,0-2.3,0.5-2.9,1.4c-0.6,0.9-0.9,2.2-0.9,4h1.8c0-1.3,0.2-2.3,0.5-2.9c0.3-0.7,0.8-1,1.5-1
			s1.2,0.3,1.5,1c0.3,0.6,0.4,1.6,0.5,2.9h1.8c0-1.7-0.4-3-1-3.9C185.6,29.8,184.6,29.3,183.3,29.3z"/>
		<path class="st0" d="M184.9,38.5c-0.3,0.7-0.8,1-1.5,1s-1.2-0.3-1.5-1c-0.3-0.6-0.4-1.6-0.5-2.9h-1.8c0,1.7,0.4,3,1,3.9
			c0.7,1,1.6,1.5,2.9,1.5c1.3,0,2.3-0.5,2.9-1.4c0.6-0.9,0.9-2.2,0.9-4h-1.8C185.3,36.9,185.2,37.9,184.9,38.5z"/>
		<path class="st0" d="M326.8,36.5l-2.9,2.9v1.4h7.7v-1.6h-5.4v-0.1l2-1.9c0.7-0.7,1.2-1.2,1.6-1.7h-2.1
			C327.4,35.9,327.2,36.2,326.8,36.5z"/>
		<path class="st0" d="M330.9,33.8c0.2-0.5,0.3-0.9,0.3-1.5c0-0.9-0.3-1.7-1-2.2c-0.6-0.6-1.5-0.8-2.5-0.8c-0.7,0-1.3,0.1-1.9,0.3
			s-1.2,0.6-1.8,1.1l1,1.2c0.5-0.4,1-0.7,1.4-0.9c0.4-0.2,0.8-0.2,1.3-0.2c0.5,0,1,0.1,1.3,0.4c0.3,0.3,0.5,0.7,0.5,1.2
			c0,0.4-0.1,0.7-0.2,1c-0.1,0.3-0.3,0.7-0.6,1c0,0-0.1,0.1-0.1,0.1h2C330.6,34.4,330.8,34.1,330.9,33.8z"/>
		<path class="st0" d="M336.8,29.3c-1.3,0-2.3,0.5-2.9,1.4c-0.6,0.9-0.9,2.2-0.9,4h1.8c0-1.3,0.2-2.3,0.5-2.9c0.3-0.7,0.8-1,1.5-1
			s1.2,0.3,1.5,1c0.3,0.6,0.4,1.6,0.5,2.9h1.8c0-1.7-0.4-3-1-3.9C339,29.8,338.1,29.3,336.8,29.3z"/>
		<path class="st0" d="M338.3,38.5c-0.3,0.7-0.8,1-1.5,1s-1.2-0.3-1.5-1c-0.3-0.6-0.4-1.6-0.5-2.9H333c0,1.7,0.4,3,1,3.9
			c0.7,1,1.6,1.5,2.9,1.5c1.3,0,2.3-0.5,2.9-1.4c0.6-0.9,0.9-2.2,0.9-4h-1.8C338.8,36.9,338.6,37.9,338.3,38.5z"/>
		<path class="st0" d="M477.7,35.7h1c1,0,1.8,0.1,2.3,0.4c0.5,0.3,0.7,0.7,0.7,1.3c0,0.7-0.2,1.2-0.7,1.5c-0.4,0.3-1.1,0.5-2,0.5
			c-0.5,0-1-0.1-1.6-0.2c-0.5-0.1-1-0.3-1.5-0.6v1.6c0.9,0.4,1.9,0.6,3.2,0.6c1.4,0,2.5-0.3,3.3-0.9c0.8-0.6,1.2-1.4,1.2-2.5
			c0-0.8-0.2-1.4-0.7-1.8c-0.1-0.1-0.2-0.1-0.2-0.2h-5V35.7z"/>
		<path class="st0" d="M482.6,33.9c0.4-0.5,0.6-1.1,0.6-1.8c0-0.9-0.3-1.5-1-2c-0.6-0.5-1.5-0.7-2.7-0.7c-1.4,0-2.6,0.4-3.6,1.1
			l0.9,1.3c0.5-0.4,1-0.6,1.4-0.7s0.8-0.2,1.2-0.2c0.6,0,1.1,0.1,1.4,0.4c0.3,0.3,0.5,0.6,0.5,1.1c0,1.3-0.9,1.9-2.7,1.9h-1v0.5h3.6
			C481.9,34.5,482.3,34.3,482.6,33.9z"/>
		<path class="st0" d="M490.4,38.5c-0.3,0.7-0.8,1-1.5,1s-1.2-0.3-1.5-1c-0.3-0.6-0.4-1.6-0.5-2.9h-1.8c0,1.7,0.4,3,1,3.9
			c0.7,1,1.6,1.5,2.9,1.5c1.3,0,2.3-0.5,2.9-1.4c0.6-0.9,0.9-2.2,0.9-4h-1.8C490.9,36.9,490.7,37.9,490.4,38.5z"/>
		<path class="st0" d="M488.9,29.3c-1.3,0-2.3,0.5-2.9,1.4c-0.6,0.9-0.9,2.2-0.9,4h1.8c0-1.3,0.2-2.3,0.5-2.9c0.3-0.7,0.8-1,1.5-1
			s1.2,0.3,1.5,1c0.3,0.6,0.4,1.6,0.5,2.9h1.8c0-1.7-0.4-3-1-3.9C491.1,29.8,490.2,29.3,488.9,29.3z"/>
		<polygon class="st0" points="634.4,36.8 630.9,36.8 631.8,35.6 630.2,35.6 629.2,37 629.2,38.4 634.4,38.4 634.4,40.8 636.2,40.8 
			636.2,38.4 637.7,38.4 637.7,36.8 636.2,36.8 636.2,35.6 634.4,35.6 		"/>
		<path class="st0" d="M633.8,32.8c0.3-0.5,0.5-0.9,0.7-1.2h0.1c-0.1,0.6-0.1,1.5-0.1,2.5v0.7h1.8v-5.3h-1.8l-3.6,5.3h1.6
			L633.8,32.8z"/>
		<path class="st0" d="M644.1,38.5c-0.3,0.7-0.8,1-1.5,1s-1.2-0.3-1.5-1c-0.3-0.6-0.4-1.6-0.5-2.9h-1.8c0,1.7,0.4,3,1,3.9
			c0.7,1,1.6,1.5,2.9,1.5c1.3,0,2.3-0.5,2.9-1.4c0.6-0.9,0.9-2.2,0.9-4h-1.8C644.5,36.9,644.4,37.9,644.1,38.5z"/>
		<path class="st0" d="M642.5,29.3c-1.3,0-2.3,0.5-2.9,1.4c-0.6,0.9-0.9,2.2-0.9,4h1.8c0-1.3,0.2-2.3,0.5-2.9c0.3-0.7,0.8-1,1.5-1
			s1.2,0.3,1.5,1c0.3,0.6,0.4,1.6,0.5,2.9h1.8c0-1.7-0.4-3-1-3.9C644.8,29.8,643.8,29.3,642.5,29.3z"/>
		<path class="st0" d="M787.2,34.7c-0.7-0.6-1.6-0.9-2.7-0.9c-0.4,0-0.7,0-1,0.1c-0.3,0-0.5,0.1-0.7,0.1l0.3-2.8h4.3v-1.6h-5.9
			l-0.4,5.2L787.2,34.7C787.2,34.7,787.2,34.7,787.2,34.7z"/>
		<path class="st0" d="M786.3,37.3c0,0.7-0.2,1.2-0.6,1.6c-0.4,0.4-1.1,0.6-1.9,0.6c-0.5,0-1-0.1-1.5-0.2c-0.5-0.1-1-0.3-1.4-0.6
			v1.7c0.7,0.4,1.7,0.6,3,0.6c1.4,0,2.5-0.3,3.2-1c0.8-0.7,1.1-1.6,1.1-2.8c0-0.6-0.1-1.1-0.3-1.6h-2.5
			C786,35.9,786.3,36.5,786.3,37.3z"/>
		<path class="st0" d="M795.1,38.5c-0.3,0.7-0.8,1-1.5,1c-0.7,0-1.2-0.3-1.5-1c-0.3-0.6-0.4-1.6-0.5-2.9h-1.8c0,1.7,0.4,3,1,3.9
			c0.7,1,1.6,1.5,2.9,1.5c1.3,0,2.3-0.5,2.9-1.4c0.6-0.9,0.9-2.2,0.9-4h-1.8C795.5,36.9,795.4,37.9,795.1,38.5z"/>
		<path class="st0" d="M793.5,29.3c-1.3,0-2.3,0.5-2.9,1.4c-0.6,0.9-0.9,2.2-0.9,4h1.8c0-1.3,0.2-2.3,0.5-2.9c0.3-0.7,0.8-1,1.5-1
			c0.7,0,1.2,0.3,1.5,1c0.3,0.6,0.4,1.6,0.5,2.9h1.8c0-1.7-0.4-3-1-3.9C795.8,29.8,794.8,29.3,793.5,29.3z"/>
		<path class="st0" d="M939.8,35.6c0.3,0.4,0.5,0.9,0.5,1.5c0,0.8-0.2,1.3-0.5,1.7c-0.3,0.4-0.8,0.6-1.4,0.6c-0.6,0-1.1-0.2-1.5-0.7
			c-0.4-0.5-0.6-1.1-0.6-1.8c0-0.3,0.1-0.6,0.3-0.9c0.1-0.2,0.2-0.3,0.4-0.4h-2.5c0,0.1,0,0.3,0,0.4c0,1.1,0.2,1.9,0.5,2.7
			s0.8,1.3,1.4,1.7c0.6,0.4,1.3,0.6,2.1,0.6c1.1,0,2.1-0.3,2.7-1s1-1.6,1-2.8c0-0.6-0.1-1.1-0.3-1.6L939.8,35.6
			C939.8,35.6,939.8,35.6,939.8,35.6z"/>
		<path class="st0" d="M937.1,31.8c0.6-0.7,1.5-1,2.7-1c0.5,0,1,0.1,1.4,0.2v-1.5c-0.4-0.1-0.9-0.1-1.4-0.1c-3.2,0-5,1.8-5.4,5.4
			h1.7C936.2,33.4,936.5,32.4,937.1,31.8z"/>
		<path class="st0" d="M941.2,34.6c-0.6-0.6-1.4-0.9-2.4-0.9c-0.6,0-1.1,0.1-1.6,0.3c-0.4,0.2-0.6,0.5-0.9,0.8h4.9
			C941.3,34.7,941.2,34.6,941.2,34.6z"/>
		<path class="st0" d="M947.2,29.3c-1.3,0-2.3,0.5-2.9,1.4c-0.6,0.9-0.9,2.2-0.9,4h1.8c0-1.3,0.2-2.3,0.5-2.9c0.3-0.7,0.8-1,1.5-1
			c0.7,0,1.2,0.3,1.5,1c0.3,0.6,0.4,1.6,0.5,2.9h1.8c0-1.7-0.4-3-1-3.9C949.5,29.8,948.5,29.3,947.2,29.3z"/>
		<path class="st0" d="M948.8,38.5c-0.3,0.7-0.8,1-1.5,1c-0.7,0-1.2-0.3-1.5-1c-0.3-0.6-0.4-1.6-0.5-2.9h-1.8c0,1.7,0.4,3,1,3.9
			c0.7,1,1.6,1.5,2.9,1.5c1.3,0,2.3-0.5,2.9-1.4c0.6-0.9,0.9-2.2,0.9-4h-1.8C949.2,36.9,949.1,37.9,948.8,38.5z"/>
		<polygon class="st0" points="1094.9,30.8 1094.9,29.5 1087,29.5 1087,31.1 1092.9,31.1 1091.3,34.7 1093.1,34.7 		"/>
		<polygon class="st0" points="1088.4,40.8 1090.4,40.8 1092.8,35.6 1090.9,35.6 		"/>
		<path class="st0" d="M1101.6,38.5c-0.3,0.7-0.8,1-1.5,1c-0.7,0-1.2-0.3-1.5-1c-0.3-0.6-0.4-1.6-0.5-2.9h-1.8c0,1.7,0.4,3,1,3.9
			c0.7,1,1.6,1.5,2.9,1.5c1.3,0,2.3-0.5,2.9-1.4c0.6-0.9,0.9-2.2,0.9-4h-1.8C1102,36.9,1101.9,37.9,1101.6,38.5z"/>
		<path class="st0" d="M1100.1,29.3c-1.3,0-2.3,0.5-2.9,1.4c-0.6,0.9-0.9,2.2-0.9,4h1.8c0-1.3,0.2-2.3,0.5-2.9c0.3-0.7,0.8-1,1.5-1
			c0.7,0,1.2,0.3,1.5,1c0.3,0.6,0.4,1.6,0.5,2.9h1.8c0-1.7-0.4-3-1-3.9C1102.3,29.8,1101.3,29.3,1100.1,29.3z"/>
		<path class="st0" d="M1392.8,35.8c0.6,0.6,1.4,0.9,2.4,0.9c0.6,0,1.1-0.1,1.5-0.3c0.4-0.2,0.7-0.5,1-0.9h-5
			C1392.7,35.7,1392.7,35.7,1392.8,35.8z"/>
		<path class="st0" d="M1396.9,38.5c-0.6,0.7-1.5,1-2.8,1c-0.5,0-0.9-0.1-1.4-0.2v1.5c0.3,0.1,0.8,0.1,1.5,0.1
			c1.8,0,3.2-0.6,4.1-1.7c0.7-0.9,1.1-2.1,1.3-3.8h-1.7C1397.8,36.9,1397.5,37.9,1396.9,38.5z"/>
		<path class="st0" d="M1393.7,33.2c0-0.7,0.2-1.3,0.5-1.7c0.3-0.4,0.8-0.6,1.5-0.6c0.4,0,0.8,0.1,1.1,0.3s0.6,0.5,0.7,1
			c0.2,0.4,0.3,0.8,0.3,1.3c0,0.5-0.2,0.9-0.6,1.3h2.4c0-0.1,0-0.3,0-0.4c0-1-0.2-1.9-0.5-2.7c-0.3-0.7-0.8-1.3-1.4-1.7
			c-0.6-0.4-1.3-0.6-2.1-0.6c-1.1,0-2.1,0.4-2.7,1.1c-0.7,0.7-1,1.6-1,2.8c0,0.6,0.1,1.1,0.2,1.5h2
			C1393.9,34.4,1393.7,33.9,1393.7,33.2z"/>
		<path class="st0" d="M1404.9,29.3c-1.3,0-2.3,0.5-2.9,1.4c-0.6,0.9-0.9,2.2-0.9,4h1.8c0-1.3,0.2-2.3,0.5-2.9c0.3-0.7,0.8-1,1.5-1
			c0.7,0,1.2,0.3,1.5,1c0.3,0.6,0.4,1.6,0.5,2.9h1.8c0-1.7-0.4-3-1-3.9C1407.1,29.8,1406.2,29.3,1404.9,29.3z"/>
		<path class="st0" d="M1406.4,38.5c-0.3,0.7-0.8,1-1.5,1c-0.7,0-1.2-0.3-1.5-1c-0.3-0.6-0.4-1.6-0.5-2.9h-1.8c0,1.7,0.4,3,1,3.9
			c0.7,1,1.6,1.5,2.9,1.5c1.3,0,2.3-0.5,2.9-1.4c0.6-0.9,0.9-2.2,0.9-4h-1.8C1406.9,36.9,1406.7,37.9,1406.4,38.5z"/>
		<path class="st0" d="M1558.6,31.8c0.2-0.1,0.3-0.3,0.4-0.4c0,0.5-0.1,1.2-0.1,2.1v7.3h1.8V29.5h-1.5l-3.1,2.4
			c0,0.1-0.1,0.3-0.1,0.4l0.8,1C1557.9,32.5,1558.4,32,1558.6,31.8z"/>
		<path class="st0" d="M1568.4,29.3c-1.3,0-2.3,0.5-2.9,1.4s-1,2.4-1,4.4c0,1.9,0.3,3.4,1,4.3c0.7,1,1.6,1.5,2.9,1.5
			c1.3,0,2.3-0.5,2.9-1.4c0.6-1,1-2.4,1-4.4c0-1.9-0.3-3.4-1-4.4C1570.6,29.8,1569.6,29.3,1568.4,29.3z M1569.9,38.5
			c-0.3,0.7-0.8,1-1.5,1c-0.7,0-1.2-0.3-1.5-1s-0.5-1.8-0.5-3.3s0.2-2.7,0.5-3.3c0.3-0.7,0.8-1,1.5-1c0.7,0,1.2,0.3,1.5,1
			c0.3,0.7,0.5,1.8,0.5,3.3C1570.4,36.7,1570.2,37.8,1569.9,38.5z"/>
		<path class="st0" d="M1580.3,30.8c-0.7-1-1.6-1.5-2.9-1.5c-1.3,0-2.3,0.5-2.9,1.4s-1,2.4-1,4.4c0,1.9,0.3,3.4,1,4.3
			c0.7,1,1.6,1.5,2.9,1.5c1.3,0,2.3-0.5,2.9-1.4c0.6-1,1-2.4,1-4.4C1581.3,33.2,1581,31.8,1580.3,30.8z M1579,38.5
			c-0.3,0.7-0.8,1-1.5,1c-0.7,0-1.2-0.3-1.5-1s-0.5-1.8-0.5-3.3s0.2-2.7,0.5-3.3c0.3-0.7,0.8-1,1.5-1c0.7,0,1.2,0.3,1.5,1
			c0.3,0.7,0.5,1.8,0.5,3.3C1579.5,36.7,1579.3,37.8,1579,38.5z"/>
		<path class="st0" d="M1413.2,35.2c0,0.1,0,0.3,0,0.4h131.6v-0.9h-131.6C1413.2,34.9,1413.2,35,1413.2,35.2z"/>
		<path class="st0" d="M929.9,34.7H801.9c0,0.1,0,0.3,0,0.4c0,0.1,0,0.3,0,0.4h127.9c0-0.1,0-0.3,0-0.4
			C929.9,35,929.9,34.9,929.9,34.7z"/>
		<path class="st0" d="M471.5,34.7H345.1c0,0.1,0,0.3,0,0.4c0,0.1,0,0.3,0,0.4h126.4c0-0.1,0-0.3,0-0.4
			C471.5,35,471.5,34.9,471.5,34.7z"/>
		<path class="st0" d="M1387.5,34.7h-126.4c0,0.1,0,0.3,0,0.4c0,0.1,0,0.3,0,0.4h126.4c0-0.1,0-0.3,0-0.4
			C1387.5,35,1387.5,34.9,1387.5,34.7z"/>
		<path class="st0" d="M1082.7,34.7H955.6c0,0.1,0,0.3,0,0.4c0,0.1,0,0.3,0,0.4h127.1c0-0.1,0-0.3,0-0.4
			C1082.6,35,1082.6,34.9,1082.7,34.7z"/>
		<path class="st0" d="M625,34.7H497.2c0,0.1,0,0.3,0,0.4c0,0.1,0,0.3,0,0.4H625c0-0.1,0-0.3,0-0.4C625,35,625,34.9,625,34.7z"/>
		<path class="st0" d="M776.3,34.7H650.7c0,0.1,0,0.3,0,0.4c0,0.1,0,0.3,0,0.4h125.6c0-0.1,0-0.3,0-0.4
			C776.3,35,776.3,34.9,776.3,34.7z"/>
		<path class="st0" d="M166.2,34.7H40v0.9h126.2c0-0.1,0-0.3,0-0.4C166.2,35,166.2,34.9,166.2,34.7z"/>
		<path class="st0" d="M319.4,34.7H191.9c0,0.1,0,0.3,0,0.4c0,0.1,0,0.3,0,0.4h127.5c0-0.1,0-0.3,0-0.4
			C319.4,35,319.4,34.9,319.4,34.7z"/>
		<path class="st0" d="M1235.4,34.7h-127.1c0,0.1,0,0.3,0,0.4c0,0.1,0,0.3,0,0.4h127.1c0-0.1,0-0.3,0-0.4
			C1235.4,35,1235.4,34.9,1235.4,34.7z"/>
		<rect x="174" y="34.7" class="st0" width="1.8" height="0.9"/>
		<path class="st0" d="M185.4,35.2c0,0.1,0,0.3,0,0.4h1.8c0-0.1,0-0.3,0-0.4c0-0.2,0-0.3,0-0.4h-1.8C185.3,34.9,185.4,35,185.4,35.2
			z"/>
		<path class="st0" d="M181.3,35.2c0-0.2,0-0.3,0-0.4h-1.8c0,0.1,0,0.3,0,0.4c0,0.1,0,0.3,0,0.4h1.8
			C181.3,35.4,181.3,35.3,181.3,35.2z"/>
		<path class="st0" d="M330.4,34.7h-2c-0.2,0.2-0.4,0.5-0.7,0.9h2.1c0.1-0.1,0.2-0.2,0.3-0.3C330.2,35.1,330.3,34.9,330.4,34.7z"/>
		<path class="st0" d="M338.8,35.2c0,0.1,0,0.3,0,0.4h1.8c0-0.1,0-0.3,0-0.4c0-0.2,0-0.3,0-0.4h-1.8C338.8,34.9,338.8,35,338.8,35.2
			z"/>
		<path class="st0" d="M334.8,35.2c0-0.2,0-0.3,0-0.4H333c0,0.1,0,0.3,0,0.4c0,0.1,0,0.3,0,0.4h1.8
			C334.8,35.4,334.8,35.3,334.8,35.2z"/>
		<path class="st0" d="M480.9,34.9c0.2,0,0.3-0.1,0.5-0.1h-3.6v0.9h5C482.2,35.2,481.6,35,480.9,34.9L480.9,34.9z"/>
		<path class="st0" d="M490.9,35.2c0,0.1,0,0.3,0,0.4h1.8c0-0.1,0-0.3,0-0.4c0-0.2,0-0.3,0-0.4h-1.8C490.9,34.9,490.9,35,490.9,35.2
			z"/>
		<path class="st0" d="M486.9,35.2c0-0.2,0-0.3,0-0.4h-1.8c0,0.1,0,0.3,0,0.4c0,0.1,0,0.3,0,0.4h1.8
			C486.9,35.4,486.9,35.3,486.9,35.2z"/>
		<polygon class="st0" points="632.4,34.7 630.8,34.7 630.2,35.6 631.8,35.6 		"/>
		<rect x="634.4" y="34.7" class="st0" width="1.8" height="0.9"/>
		<path class="st0" d="M640.5,35.2c0-0.2,0-0.3,0-0.4h-1.8c0,0.1,0,0.3,0,0.4c0,0.1,0,0.3,0,0.4h1.8
			C640.6,35.4,640.5,35.3,640.5,35.2z"/>
		<path class="st0" d="M644.6,35.2c0,0.1,0,0.3,0,0.4h1.8c0-0.1,0-0.3,0-0.4c0-0.2,0-0.3,0-0.4h-1.8C644.6,34.9,644.6,35,644.6,35.2
			z"/>
		<path class="st0" d="M781.1,34.7l0,0.3l0.8,0.5c0.3-0.1,0.6-0.1,0.9-0.2c0.4,0,0.7-0.1,0.9-0.1c0.7,0,1.2,0.1,1.6,0.3h2.5
			c-0.2-0.3-0.4-0.6-0.6-0.9H781.1z"/>
		<path class="st0" d="M791.5,35.2c0-0.2,0-0.3,0-0.4h-1.8c0,0.1,0,0.3,0,0.4c0,0.1,0,0.3,0,0.4h1.8
			C791.5,35.4,791.5,35.3,791.5,35.2z"/>
		<path class="st0" d="M795.6,35.2c0,0.1,0,0.3,0,0.4h1.8c0-0.1,0-0.3,0-0.4c0-0.2,0-0.3,0-0.4h-1.8C795.5,34.9,795.6,35,795.6,35.2
			z"/>
		<path class="st0" d="M936.4,34.7c-0.1,0.1-0.1,0.1-0.2,0.2h-0.1c0-0.1,0-0.1,0-0.2h-1.7c0,0.3,0,0.6,0,0.9h2.5
			c0.1-0.1,0.3-0.2,0.4-0.3c0.3-0.2,0.7-0.3,1.1-0.3c0.6,0,1.1,0.2,1.4,0.5h2c-0.1-0.3-0.3-0.6-0.5-0.9H936.4z"/>
		<path class="st0" d="M949.3,35.2c0,0.1,0,0.3,0,0.4h1.8c0-0.1,0-0.3,0-0.4c0-0.2,0-0.3,0-0.4h-1.8C949.2,34.9,949.3,35,949.3,35.2
			z"/>
		<path class="st0" d="M945.2,35.2c0-0.2,0-0.3,0-0.4h-1.8c0,0.1,0,0.3,0,0.4c0,0.1,0,0.3,0,0.4h1.8
			C945.2,35.4,945.2,35.3,945.2,35.2z"/>
		<polygon class="st0" points="1091.3,34.7 1090.9,35.6 1092.8,35.6 1093.1,34.7 		"/>
		<path class="st0" d="M1102.1,35.2c0,0.1,0,0.3,0,0.4h1.8c0-0.1,0-0.3,0-0.4c0-0.2,0-0.3,0-0.4h-1.8
			C1102.1,34.9,1102.1,35,1102.1,35.2z"/>
		<path class="st0" d="M1098.1,35.2c0-0.2,0-0.3,0-0.4h-1.8c0,0.1,0,0.3,0,0.4c0,0.1,0,0.3,0,0.4h1.8
			C1098.1,35.4,1098.1,35.3,1098.1,35.2z"/>
		<path class="st0" d="M1247,36.3c-0.2-0.2-0.4-0.5-0.7-0.7c-0.3-0.3-0.7-0.5-1.2-0.7c0.1,0,0.1-0.1,0.2-0.1
			c1.2-0.7,1.9-1.6,1.9-2.7c0-0.8-0.3-1.5-0.9-2c-0.6-0.5-1.5-0.7-2.6-0.7c-1,0-1.9,0.2-2.5,0.7c-0.6,0.5-1,1.1-1,2
			c0,0.6,0.1,1.1,0.4,1.6c0.3,0.4,0.7,0.8,1.2,1.1c0.1,0.1,0.2,0.1,0.3,0.2c-0.4,0.2-0.8,0.4-1.1,0.7c-0.3,0.2-0.5,0.4-0.7,0.7
			c-0.4,0.5-0.5,1.1-0.5,1.7c0,1,0.3,1.7,1,2.2s1.6,0.8,2.9,0.8c1.2,0,2.1-0.3,2.8-0.8s1-1.3,1-2.3
			C1247.6,37.3,1247.4,36.7,1247,36.3z M1242,32.2c0-0.4,0.2-0.8,0.5-1c0.3-0.3,0.7-0.4,1.2-0.4c0.5,0,1,0.1,1.3,0.4
			c0.3,0.3,0.5,0.6,0.5,1c0,0.4-0.1,0.8-0.4,1.1c-0.3,0.3-0.7,0.6-1.3,0.9c-0.5-0.2-0.9-0.5-1.1-0.6c-0.2-0.2-0.4-0.4-0.5-0.6
			C1242,32.7,1242,32.4,1242,32.2z M1245.3,39.1c-0.4,0.3-0.9,0.5-1.6,0.5c-0.6,0-1.2-0.1-1.5-0.4c-0.4-0.3-0.6-0.7-0.6-1.3
			c0-0.5,0.2-0.9,0.5-1.2c0.3-0.4,0.8-0.7,1.5-1l0.2,0.1c0.7,0.3,1.2,0.6,1.6,1s0.5,0.7,0.5,1.1
			C1245.8,38.4,1245.6,38.8,1245.3,39.1z"/>
		<path class="st0" d="M1256.6,34.7c0-1.7-0.4-3-1-3.9c-0.7-1-1.6-1.5-2.9-1.5c-1.3,0-2.3,0.5-2.9,1.4c-0.6,0.9-0.9,2.2-0.9,4
			c0,0.1,0,0.3,0,0.4c0,0.1,0,0.3,0,0.4c0,1.7,0.4,3,1,3.9c0.7,1,1.6,1.5,2.9,1.5c1.3,0,2.3-0.5,2.9-1.4c0.6-0.9,0.9-2.2,0.9-4
			c0-0.1,0-0.3,0-0.4C1256.7,35,1256.6,34.9,1256.6,34.7z M1254.3,38.5c-0.3,0.7-0.8,1-1.5,1c-0.7,0-1.2-0.3-1.5-1
			c-0.3-0.6-0.4-1.6-0.5-2.9c0-0.1,0-0.3,0-0.4c0-0.2,0-0.3,0-0.4c0-1.3,0.2-2.3,0.5-2.9c0.3-0.7,0.8-1,1.5-1c0.7,0,1.2,0.3,1.5,1
			c0.3,0.6,0.4,1.6,0.5,2.9c0,0.1,0,0.3,0,0.4c0,0.1,0,0.3,0,0.4C1254.8,36.9,1254.6,37.9,1254.3,38.5z"/>
		<path class="st0" d="M1397.8,35.4c0,0.1-0.1,0.1-0.1,0.2h0.2C1397.9,35.5,1397.9,35.5,1397.8,35.4L1397.8,35.4z"/>
		<path class="st0" d="M1397.2,34.7C1397.2,34.7,1397.2,34.7,1397.2,34.7c-0.4,0.4-0.9,0.6-1.6,0.6c-0.6,0-1.1-0.2-1.4-0.6
			c0,0,0,0,0,0h-2c0.1,0.3,0.3,0.6,0.5,0.9h5c0-0.1,0.1-0.1,0.1-0.2h0.1c0,0.1,0,0.1,0,0.2h1.7c0-0.3,0-0.6,0-0.9H1397.2z"/>
		<path class="st0" d="M1402.9,35.2c0-0.2,0-0.3,0-0.4h-1.8c0,0.1,0,0.3,0,0.4c0,0.1,0,0.3,0,0.4h1.8
			C1402.9,35.4,1402.9,35.3,1402.9,35.2z"/>
		<path class="st0" d="M1406.9,35.2c0,0.1,0,0.3,0,0.4h1.8c0-0.1,0-0.3,0-0.4c0-0.2,0-0.3,0-0.4h-1.8
			C1406.9,34.9,1406.9,35,1406.9,35.2z"/>
	</g>
	<rect x="40" y="30.1" class="st0" width="0.9" height="10.3"/>
	<rect x="1543.9" y="30" class="st0" width="0.9" height="10.3"/>
</g>
</svg>
