<?xml version="1.0" encoding="utf-8"?>
<!-- Generator: Adobe Illustrator 20.1.0, SVG Export Plug-In . SVG Version: 6.00 Build 0)  -->
<svg version="1.1" id="Layer_1" xmlns="http://www.w3.org/2000/svg" xmlns:xlink="http://www.w3.org/1999/xlink" x="0px" y="0px"
	 viewBox="0 0 166.2 5492.8" style="enable-background:new 0 0 166.2 5492.8;" xml:space="preserve">
<style type="text/css">
	.st0{fill:#FFFFFF;}
	.st1{font-family:'OpenSans-Semibold';}
	.st2{font-size:16px;}
	.st3{fill:none;stroke:#FFFFFF;stroke-miterlimit:10;}
</style>
<text transform="matrix(1 0 0 1 20.2824 13.711)" class="st0 st1 st2">Oct, 2016</text>
<text transform="matrix(1 0 0 1 20.2824 5468.9272)" class="st0 st1 st2">Oct, 2011</text>
<text transform="matrix(1 0 0 1 18.3615 5378.0068)" class="st0 st1 st2">Nov, 2011</text>
<text transform="matrix(1 0 0 1 18.758 5287.0869)" class="st0 st1 st2">Dec, 2011</text>
<text transform="matrix(1 0 0 1 21.1819 5196.1665)" class="st0 st1 st2">Jan, 2012</text>
<text transform="matrix(1 0 0 1 20.0422 5105.2466)" class="st0 st1 st2">Feb, 2012</text>
<text transform="matrix(1 0 0 1 19.2746 5014.3257)" class="st0 st1 st2">Mar, 2012</text>
<text transform="matrix(1 0 0 1 20.6418 4923.4058)" class="st0 st1 st2">Apr, 2012</text>
<text transform="matrix(1 0 0 1 17.4738 4832.4858)" class="st0 st1 st2">May, 2012</text>
<text transform="matrix(1 0 0 1 14.4865 4741.5649)" class="st0 st1 st2">June, 2012</text>
<text transform="matrix(1 0 0 1 18.9983 4650.645)" class="st0 st1 st2">July, 2012</text>
<text transform="matrix(1 0 0 1 17.7258 4559.7246)" class="st0 st1 st2">Aug, 2012</text>
<text transform="matrix(1 0 0 1 15.302 4468.8042)" class="st0 st1 st2">Sept, 2012</text>
<text transform="matrix(1 0 0 1 18.3615 4286.9639)" class="st0 st1 st2">Nov, 2012</text>
<text transform="matrix(1 0 0 1 18.758 4196.0435)" class="st0 st1 st2">Dec, 2012</text>
<text transform="matrix(1 0 0 1 21.1819 4105.123)" class="st0 st1 st2">Jan, 2013</text>
<text transform="matrix(1 0 0 1 20.0422 4014.2031)" class="st0 st1 st2">Feb, 2013</text>
<text transform="matrix(1 0 0 1 19.2746 3923.283)" class="st0 st1 st2">Mar, 2013</text>
<text transform="matrix(1 0 0 1 20.6418 3832.3623)" class="st0 st1 st2">Apr, 2013</text>
<text transform="matrix(1 0 0 1 17.4738 3741.4424)" class="st0 st1 st2">May, 2013</text>
<text transform="matrix(1 0 0 1 14.4865 3650.5217)" class="st0 st1 st2">June, 2013</text>
<text transform="matrix(1 0 0 1 18.9983 3559.6018)" class="st0 st1 st2">July, 2013</text>
<text transform="matrix(1 0 0 1 17.7258 3468.6816)" class="st0 st1 st2">Aug, 2013</text>
<text transform="matrix(1 0 0 1 15.302 3377.7612)" class="st0 st1 st2">Sept, 2013</text>
<text transform="matrix(1 0 0 1 18.3615 3195.9207)" class="st0 st1 st2">Nov, 2013</text>
<text transform="matrix(1 0 0 1 18.758 3105.0005)" class="st0 st1 st2">Dec, 2013</text>
<text transform="matrix(1 0 0 1 21.1819 3014.0801)" class="st0 st1 st2">Jan, 2014</text>
<text transform="matrix(1 0 0 1 20.0422 2923.1597)" class="st0 st1 st2">Feb, 2014</text>
<text transform="matrix(1 0 0 1 19.2746 2832.2395)" class="st0 st1 st2">Mar, 2014</text>
<text transform="matrix(1 0 0 1 20.6418 2741.3193)" class="st0 st1 st2">Apr, 2014</text>
<text transform="matrix(1 0 0 1 17.4738 2650.3992)" class="st0 st1 st2">May, 2014</text>
<text transform="matrix(1 0 0 1 14.4865 2559.4785)" class="st0 st1 st2">June, 2014</text>
<text transform="matrix(1 0 0 1 18.9983 2468.5586)" class="st0 st1 st2">July, 2014</text>
<text transform="matrix(1 0 0 1 17.7258 2377.6382)" class="st0 st1 st2">Aug, 2014</text>
<text transform="matrix(1 0 0 1 15.302 2286.718)" class="st0 st1 st2">Sept, 2013</text>
<text transform="matrix(1 0 0 1 18.3615 2104.8774)" class="st0 st1 st2">Nov, 2014</text>
<text transform="matrix(1 0 0 1 18.758 2013.957)" class="st0 st1 st2">Dec, 2014</text>
<text transform="matrix(1 0 0 1 21.1819 1923.0366)" class="st0 st1 st2">Jan, 2015</text>
<text transform="matrix(1 0 0 1 20.0422 1832.1165)" class="st0 st1 st2">Feb, 2015</text>
<text transform="matrix(1 0 0 1 19.2746 1741.1959)" class="st0 st1 st2">Mar, 2015</text>
<text transform="matrix(1 0 0 1 20.6418 1650.2761)" class="st0 st1 st2">Apr, 2015</text>
<text transform="matrix(1 0 0 1 17.4738 1559.3556)" class="st0 st1 st2">May, 2015</text>
<text transform="matrix(1 0 0 1 14.4865 1468.4352)" class="st0 st1 st2">June, 2015</text>
<text transform="matrix(1 0 0 1 18.9983 1377.5151)" class="st0 st1 st2">July, 2015</text>
<text transform="matrix(1 0 0 1 17.7258 1286.5951)" class="st0 st1 st2">Aug, 2015</text>
<text transform="matrix(1 0 0 1 15.302 1195.6747)" class="st0 st1 st2">Sept, 2015</text>
<text transform="matrix(1 0 0 1 18.3615 1013.8341)" class="st0 st1 st2">Nov, 2015</text>
<text transform="matrix(1 0 0 1 18.758 922.9136)" class="st0 st1 st2">Dec, 2015</text>
<text transform="matrix(1 0 0 1 21.1819 831.9935)" class="st0 st1 st2">Jan, 2016</text>
<text transform="matrix(1 0 0 1 20.0422 741.0731)" class="st0 st1 st2">Feb, 2016</text>
<text transform="matrix(1 0 0 1 19.2746 650.1531)" class="st0 st1 st2">Mar, 2016</text>
<text transform="matrix(1 0 0 1 20.6418 559.2327)" class="st0 st1 st2">Apr, 2016</text>
<text transform="matrix(1 0 0 1 17.4738 468.3123)" class="st0 st1 st2">May, 2016</text>
<text transform="matrix(1 0 0 1 14.4865 377.3923)" class="st0 st1 st2">June, 2016</text>
<text transform="matrix(1 0 0 1 18.9983 286.472)" class="st0 st1 st2">July, 2016</text>
<text transform="matrix(1 0 0 1 17.7258 195.5516)" class="st0 st1 st2">Aug, 2016</text>
<text transform="matrix(1 0 0 1 15.302 104.6313)" class="st0 st1 st2">Sept, 2016</text>
<text transform="matrix(1 0 0 1 20.2824 4377.8838)" class="st0 st1 st2">Oct, 2012</text>
<text transform="matrix(1 0 0 1 20.2824 3286.8411)" class="st0 st1 st2">Oct, 2013</text>
<text transform="matrix(1 0 0 1 20.2824 2195.7974)" class="st0 st1 st2">Oct, 2014</text>
<text transform="matrix(1 0 0 1 20.2824 1104.7542)" class="st0 st1 st2">Oct, 2015</text>
<line class="st3" x1="143.5" y1="3.2" x2="143.5" y2="5464.3"/>
<line class="st3" x1="150" y1="5464.3" x2="137.4" y2="5464.3"/>
<line class="st3" x1="149.3" y1="3.2" x2="137.8" y2="3.2"/>
</svg>
